<svg xmlns="http://www.w3.org/2000/svg">
      <symbol id="car__svg" viewBox="0 0 1280.000000 358.000000">
        <g transform="translate(0.000000,358.000000) scale(0.100000,-0.100000)">
<path d="M5555 3570 c-1052 -41 -1973 -167 -2254 -309 -72 -37 -106 -65 -575
-468 -216 -187 -407 -343 -435 -358 -28 -14 -72 -29 -98 -35 -27 -5 -235 -21
-463 -35 -466 -29 -804 -56 -1055 -85 -300 -35 -342 -48 -396 -123 -40 -54
-39 -52 -120 -309 -38 -120 -76 -229 -85 -243 -19 -29 -13 -109 12 -160 8 -16
11 -21 8 -10 -4 11 -9 50 -12 88 l-4 67 61 0 c33 0 61 -1 62 -2 5 -14 33 -348
29 -348 -8 0 -66 73 -99 125 -17 27 -31 45 -31 39 0 -23 103 -166 166 -228 84
-85 240 -211 351 -283 70 -46 96 -56 179 -74 238 -50 542 -79 821 -79 150 0
163 1 173 19 5 11 10 31 10 46 0 25 2 26 47 23 l47 -3 13 -75 c62 -374 237
-618 515 -718 70 -25 83 -26 278 -27 185 0 213 2 285 23 98 28 212 88 283 149
100 86 191 244 222 385 13 58 24 68 78 68 26 0 27 6 7 54 -12 29 -13 37 -3 41
7 2 400 9 873 14 2325 29 3935 51 4165 55 141 3 262 1 269 -3 10 -7 6 -23 -23
-73 -20 -36 -36 -67 -36 -70 0 -3 26 4 58 15 41 14 86 20 160 21 l104 1 22
-70 c80 -249 280 -460 521 -550 197 -74 445 -74 644 1 180 68 352 216 450 387
l31 54 132 6 c307 12 493 112 686 367 2 3 81 8 175 12 95 4 179 7 187 7 8 1
30 1 49 1 55 -1 104 20 136 57 l30 35 58 -17 58 -17 77 49 c71 45 82 57 135
144 111 180 128 214 129 263 0 40 5 49 27 61 31 17 22 20 -14 3 -14 -6 -25
-15 -25 -19 0 -5 -7 -5 -17 -2 -10 4 -14 2 -10 -4 3 -5 -17 -21 -44 -34 -47
-21 -59 -35 -140 -159 -78 -120 -97 -166 -54 -130 25 21 18 -13 -7 -38 -27
-24 -67 -41 -122 -50 -32 -6 -45 -15 -70 -54 -34 -50 -57 -65 -123 -77 -30 -6
-48 -5 -60 4 -16 12 -15 15 9 44 87 102 154 171 169 171 29 0 83 27 108 54 30
32 39 33 43 1 3 -21 14 -10 80 79 85 116 85 116 -11 116 -49 0 -61 -4 -81 -25
l-24 -26 -466 3 c-442 3 -467 4 -505 23 l-40 20 195 5 195 5 -207 5 c-195 5
-209 6 -229 26 -17 18 -19 25 -10 43 6 11 20 25 30 30 10 6 155 15 322 21 167
5 364 13 437 16 l132 7 0 43 c0 60 35 233 66 329 37 116 118 280 145 298 13 8
79 32 146 53 l122 37 -24 23 c-69 64 -314 145 -557 184 -94 15 -523 57 -703
69 -82 6 -249 17 -370 26 -355 24 -810 44 -1270 55 -442 12 -985 9 -1043 -5
-19 -4 -37 -3 -45 3 -18 15 -165 40 -302 51 -216 18 -425 24 -425 14 0 -6 78
-12 193 -16 190 -7 304 -16 445 -38 65 -11 70 -13 49 -24 -40 -21 -67 -24 -95
-10 -67 32 -722 90 -722 64 0 -5 37 -9 83 -9 140 -1 544 -36 533 -47 -2 -3
-55 1 -118 7 l-113 12 -180 -47 c-99 -25 -225 -62 -280 -81 -168 -59 -156 -61
-277 48 -198 181 -454 403 -663 576 -280 232 -267 220 -263 245 2 17 21 27
106 54 156 51 311 74 484 74 211 1 345 -23 361 -63 3 -10 -14 -8 -62 8 -36 13
-99 26 -139 30 l-74 7 24 -24 c12 -14 52 -63 87 -109 57 -75 103 -116 383
-340 175 -140 330 -263 345 -272 29 -18 106 -22 168 -9 28 6 22 12 -166 161
-107 85 -278 217 -380 293 l-186 139 20 38 c16 34 17 42 5 66 -28 58 -70 73
-318 111 -87 13 -216 16 -740 18 -349 2 -729 -1 -845 -5z m730 -184 c39 -15
98 -46 131 -69 34 -23 274 -224 533 -447 368 -316 468 -406 451 -408 -13 -2
-33 6 -48 20 -26 22 -26 22 -8 1 23 -28 3 -32 -28 -5 -17 14 -19 14 -8 0 12
-15 6 -17 -60 -22 -40 -3 -178 -8 -306 -11 -218 -6 -233 -5 -238 12 -3 10 -10
27 -15 38 -8 18 -9 18 -4 -2 3 -13 8 -32 11 -43 4 -14 1 -20 -10 -20 -9 0 -16
6 -16 13 0 9 -2 9 -8 0 -5 -8 -43 -14 -102 -16 -75 -3 -68 -3 35 -4 l130 0 0
-24 c0 -23 -2 -24 -90 -26 -49 -2 -661 -19 -1360 -39 -698 -19 -1295 -33
-1325 -31 -30 3 -99 21 -153 40 -55 19 -138 40 -185 47 -48 6 -102 15 -120 18
l-33 7 285 395 c157 217 296 406 308 419 47 50 133 79 313 106 461 67 741 84
1350 80 l500 -3 70 -26z m-1660 -1166 c0 -12 -25 -16 -140 -20 -77 -3 -127 -7
-112 -8 38 -3 33 -31 -10 -48 -28 -12 -34 -11 -57 7 -30 24 -33 45 -9 71 15
17 31 18 172 16 131 -3 156 -5 156 -18z m7194 -295 c-2 -117 -19 -235 -39
-275 -25 -50 -55 -86 -84 -102 -18 -10 -19 -6 -14 88 3 55 9 107 13 117 8 20
36 22 53 5 9 -9 12 -6 12 15 0 20 -5 27 -19 27 -29 0 -36 59 -15 123 9 29 19
55 21 59 8 14 73 -37 72 -57z m-1689 -361 c266 -78 453 -323 467 -609 6 -131
-13 -222 -72 -342 -74 -150 -195 -257 -363 -321 -60 -24 -81 -26 -202 -26
-115 0 -144 3 -200 23 -258 91 -424 319 -437 601 -7 127 16 234 74 348 64 128
202 257 327 305 130 49 284 57 406 21z m-7428 -105 c279 -58 482 -380 440
-698 -22 -163 -78 -282 -186 -390 -60 -62 -158 -120 -235 -141 -63 -17 -191
-14 -258 5 -285 82 -467 423 -399 750 47 227 212 415 413 470 60 17 156 18
225 4z m9248 -274 c0 -50 -149 -195 -201 -195 -60 0 19 126 120 191 56 36 81
38 81 4z"/>
<path fill="#000000" d="M5445 3353 c-393 -18 -531 -29 -900 -68 -265 -29 -405 -57 -433 -89
-11 -11 -128 -169 -260 -351 -288 -393 -276 -379 -290 -374 -12 4 500 714 540
751 14 12 9 10 -12 -4 -38 -28 -554 -733 -546 -747 3 -5 33 -12 67 -15 87 -10
241 -52 298 -81 l48 -24 694 19 c382 11 744 21 804 22 76 1 90 3 46 5 -54 3
-70 9 -98 33 -69 61 -166 90 -297 90 -62 0 -86 3 -86 13 0 19 94 209 154 310
77 132 151 227 199 259 105 69 494 154 862 187 l90 8 -40 18 c-81 36 -176 44
-485 43 -162 -1 -322 -3 -355 -5z m-1107 -199 c13 -9 22 -19 20 -24 -2 -6
-129 -147 -283 -315 l-280 -304 -67 -1 c-60 0 -68 2 -68 19 0 23 395 562 451
615 l41 38 81 -7 c45 -3 92 -13 105 -21z"/>
<path fill="#000000" d="M9805 1511 c-102 -30 -165 -69 -250 -155 -125 -126 -178 -256 -178
-436 0 -175 57 -316 177 -435 119 -117 243 -169 406 -169 163 1 292 56 412
175 72 73 135 186 159 289 17 76 15 222 -6 300 -54 209 -227 383 -430 435 -78
20 -214 18 -290 -4z m235 -52 c128 -21 266 -113 340 -229 30 -46 80 -182 80
-215 0 -9 -10 -15 -23 -15 -20 0 -26 9 -41 61 -9 33 -28 82 -41 107 -26 50
-69 108 -59 81 3 -10 1 -20 -5 -24 -6 -3 -11 -19 -11 -35 0 -23 5 -31 24 -36
14 -3 29 -3 35 0 5 4 15 -3 22 -16 10 -19 9 -24 -10 -36 -32 -22 -27 -50 12
-60 21 -5 33 -15 35 -29 4 -26 -3 -28 -130 -44 -54 -7 -98 -16 -98 -21 0 -8
60 -4 146 12 38 6 40 5 37 -15 -4 -16 5 -28 34 -48 22 -15 47 -27 56 -27 22 0
22 -29 1 -101 -84 -285 -378 -445 -641 -348 -137 51 -239 151 -298 292 -15 37
-15 37 10 49 21 9 25 17 20 37 -5 22 0 29 32 47 21 11 37 26 35 32 -1 8 18 12
63 12 62 0 65 -1 65 -24 0 -21 -11 -28 -81 -55 -44 -17 -85 -31 -89 -31 -18 0
-20 -20 -4 -60 l17 -41 34 33 c25 24 32 39 28 55 -4 19 2 24 47 39 49 16 52
16 65 -2 13 -17 8 -25 -62 -91 -90 -84 -90 -89 -12 -158 178 -161 434 -152
602 21 43 43 95 123 95 143 0 6 -12 11 -27 11 -16 1 -66 22 -113 48 -66 36
-85 51 -82 65 3 15 10 18 40 13 21 -3 62 -8 93 -11 33 -4 56 -11 56 -18 1 -7
10 -30 22 -51 20 -38 21 -39 29 -15 5 13 12 40 16 59 6 32 4 36 -16 35 -13 0
-68 4 -123 8 l-101 9 -11 61 c-27 141 -144 219 -269 182 -79 -23 -153 -113
-154 -185 l0 -25 -105 3 c-92 3 -105 5 -105 21 0 10 12 20 32 26 42 13 46 30
9 49 -40 21 -41 21 -41 -14 0 -25 -4 -30 -25 -30 -22 0 -25 4 -25 36 0 50 44
176 84 237 74 115 204 205 326 226 76 12 86 12 160 0z m90 -551 c-1 -112 -130
-219 -228 -190 -81 25 -145 95 -154 172 -5 45 24 28 38 -21 17 -56 66 -103
123 -119 81 -21 175 54 188 149 7 51 33 57 33 9z"/>
<path fill="#000000" d="M2493 1396 c-139 -34 -271 -142 -336 -276 -50 -102 -67 -177 -67
-288 0 -172 61 -321 175 -431 92 -88 187 -132 303 -139 209 -11 385 95 480
290 53 109 67 172 66 293 -4 360 -305 627 -621 551z m227 -68 c156 -47 278
-185 315 -357 7 -33 7 -34 -21 -28 -23 4 -244 -45 -250 -56 0 -1 -9 -32 -18
-70 -10 -37 -22 -70 -27 -73 -12 -7 -12 -24 0 -24 5 0 17 20 28 45 l18 45 91
0 c85 0 91 -1 90 -20 -1 -25 54 -63 61 -42 3 6 11 12 18 12 10 0 11 -9 3 -42
-16 -75 -70 -170 -128 -228 -165 -164 -410 -166 -574 -5 -82 81 -168 267 -130
282 8 3 14 13 14 23 0 10 13 23 30 30 46 19 58 39 35 56 -10 8 -29 14 -42 14
-14 0 -23 6 -23 15 0 8 -7 15 -15 15 -21 0 -19 34 9 112 81 230 306 359 516
296z m236 -413 c-3 -9 6 -23 24 -37 17 -12 30 -30 30 -40 0 -16 -11 -18 -126
-18 l-125 0 6 23 c4 12 11 26 16 31 6 7 132 46 178 55 2 1 1 -6 -3 -14z"/>
<path fill="#000000" d="M2485 1001 c-62 -28 -108 -113 -69 -128 11 -4 19 -2 22 7 3 7 20 29
38 49 31 34 36 36 93 36 53 -1 64 -4 91 -30 17 -16 33 -40 36 -52 4 -13 13
-23 21 -23 11 0 13 7 9 26 -12 47 -41 82 -61 72 -2 -2 -12 7 -20 19 -14 21
-70 43 -105 43 -8 0 -33 -9 -55 -19z"/>
<path fill="#000000" d="M2525 898 c-36 -32 -38 -78 -5 -113 31 -33 73 -33 105 0 70 69 -25
177 -100 113z"/>
<path fill="#000000" d="M2335 684 c-33 -30 -66 -52 -73 -49 -23 9 20 -57 75 -113 64 -65 191
-129 179 -89 -3 6 -7 24 -10 40 -7 31 -35 36 -60 12 -20 -20 -31 -2 -27 42 3
35 -7 40 -40 23 -27 -15 -24 -7 22 61 36 53 43 59 57 47 9 -7 20 -17 23 -21 3
-5 9 -8 13 -8 30 4 36 -1 38 -36 1 -36 1 -37 5 -6 4 28 9 32 41 38 40 6 70 21
61 29 -2 3 -22 1 -42 -4 -42 -9 -102 3 -128 26 -8 8 -18 14 -22 14 -4 0 -29
-32 -56 -70 -48 -69 -72 -80 -51 -24 14 35 5 58 -18 50 -9 -4 6 13 33 37 28
25 48 47 45 50 -3 3 -32 -19 -65 -49z"/>
<path fill="#000000" d="M6895 3486 c-179 -25 -350 -80 -350 -113 0 -6 25 -31 55 -54 51 -41
338 -283 749 -631 96 -82 182 -148 192 -148 10 0 123 24 251 54 128 30 247 56
263 59 l30 4 -33 2 c-19 0 -142 -24 -274 -54 -217 -50 -242 -54 -262 -41 -11
8 -124 103 -251 212 -265 228 -519 441 -561 471 -16 12 -27 23 -24 26 3 2 95
9 205 14 145 7 204 7 214 -1 11 -8 15 -8 18 2 6 15 30 16 35 1 4 -12 118 -2
118 10 0 4 -39 46 -86 93 -47 48 -83 91 -79 97 8 14 -91 13 -210 -3z"/>
<path fill="#000000" d="M7307 3254 c-9 -10 271 -564 286 -564 38 1 28 26 -113 290 -81 151
-151 275 -157 277 -5 2 -12 1 -16 -3z"/>
<path fill="#000000" d="M12326 1607 c-102 -25 -132 -37 -144 -54 l-14 -23 63 0 c165 0 391
67 338 101 -26 16 -112 8 -243 -24z"/>
<path fill="#000000" d="M3700 591 c0 -18 133 -94 213 -122 214 -74 460 -56 657 47 36 19 79
45 95 59 l30 24 -497 1 c-282 0 -498 -4 -498 -9z"/>
</g>
      </symbol>
    </svg>